# xmcd
#
# Track frame offsets:
#	150
#	21561
#	50292
#	64737
#	80940
#	105051
#	119852
#	140136
#	163391
#	178955
#	198053
#	218900
#	235314
#	264199
#
# Disc length: 3716 seconds
#
# Revision: 0
# Processed by: cddbd v1.5.2PL0 Copyright (c) Steve Scherf et al.
# Submitted via: EasyCDDAExtractor 12.0.4.1
#
DISCID=d40e820e
DTITLE=Frans Van Deursen - Scherven Van Een Leeggedronken Nacht
DYEAR=2010
DGENRE=Blues
TTITLE0=Vette Lever and Een Gebroken Hart
TTITLE1=Afspraak Met De Blues
TTITLE2=Een Verse Laag Verf
TTITLE3=Een Troost Voor Het Oog
TTITLE4=Dansen Matilde
TTITLE5=Halve Jan
TTITLE6=Martha
TTITLE7=Lauw Bier En Kouwe Vrouwen
TTITLE8=Mijn Liefde Is Alleen Voor Jou
TTITLE9=Ouwe Fietswrakken
TTITLE10=Kentucky Avenue
TTITLE11=Tango Tot Het Bot
TTITLE12=Scherven Van Een Leeggedronken Nacht
TTITLE13=De Piano Heeft Gedronken
EXTD=
EXTT0=
EXTT1=
EXTT2=
EXTT3=
EXTT4=
EXTT5=
EXTT6=
EXTT7=
EXTT8=
EXTT9=
EXTT10=
EXTT11=
EXTT12=
EXTT13=
PLAYORDER=
